<?xml version="1.0" encoding="UTF-8"?>
<!DOCTYPE svg PUBLIC "-//W3C//DTD SVG 1.1//EN" "http://www.w3.org/Graphics/SVG/1.1/DTD/svg11.dtd">
<!-- Creator: CorelDRAW 2018 (64-Bit Evaluation Version) -->
<svg xmlns="http://www.w3.org/2000/svg" xml:space="preserve" width="198.543mm" height="249.767mm" version="1.1" style="shape-rendering:geometricPrecision; text-rendering:geometricPrecision; image-rendering:optimizeQuality; fill-rule:evenodd; clip-rule:evenodd"
viewBox="0 0 19854.3 24976.7"
 xmlns:xlink="http://www.w3.org/1999/xlink">
 <defs>
  <style type="text/css">
   <![CDATA[
    .fil0 {fill:#696567}
   ]]>
  </style>
 </defs>
 <g id="Layer_x0020_1">
  <metadata id="CorelCorpID_0Corel-Layer"/>
  <path class="fil0" d="M-0.01 20421.65l0 2970.48c61.87,-29.24 125.77,-79.84 179.45,-118.17 164.71,-117.59 381.33,-262.55 557.41,-357.93 604.13,-327.25 1034.52,-544.88 1690.26,-741.16 213.07,-63.77 753.81,-203.77 973.96,-240.49 599.81,-100.04 1655.97,-126.85 2293.14,-54.98 944.34,106.53 2009.01,424.42 2849.12,805.32 145.91,66.15 268.25,132.41 409.49,199.06 486.53,229.6 1084.78,615.7 1570.17,859.54 443.77,222.92 769.81,398.74 1244.59,588.66 817.88,327.17 1563.82,497.67 2439.88,595.43 61.82,6.9 552.88,41.51 565.69,49.27l840.83 0 327.5 -31.3c258.84,-27.23 364.34,-50.67 610.31,-103.35 109.18,-23.39 219.07,-25.04 313.77,-55.24 189.22,-60.33 379.87,-97.86 567.48,-150.23 407.18,-113.66 1145.7,-422.16 1523.79,-646.94 220.37,-131.02 461.39,-249.91 657.95,-417.44 52.34,-44.61 147.03,-133.19 222.56,-144.95l0 -2683.04c7.08,-26.4 -5.46,-7.7 16.97,-17.81l0 -19134.6c-46.07,16.43 -146.23,92.43 -188.17,122.16 -33.39,23.66 -61.3,39.16 -95.88,63.36l-271.4 186.94 -494.24 272.11c-34.48,21.12 -62.91,32.92 -97.8,51.47 -131.65,69.98 -275.98,138.74 -410.72,196.96 -145.33,62.8 -294.91,123.82 -441.42,175.72 -408.91,144.85 -1006.88,319.77 -1433.1,389.55 -175.59,28.75 -357.91,39.78 -553.75,62.78 -188.95,22.18 -387.82,9.96 -583.8,26.89 -163.05,14.09 -728.41,1.92 -901.38,-18.76 -93.15,-11.13 -177.2,-15.5 -269.28,-26.56 -1220.02,-146.58 -2379.35,-559 -3458.05,-1123.91 -58.38,-30.57 -130.19,-69.66 -193.13,-105.64 -308.45,-176.33 -827.33,-474.46 -1179.37,-653.33l-821.94 -401.22c-143.44,-68.63 -277.91,-119.88 -427.43,-181.13 -769.3,-315.14 -1624.99,-497.7 -2460.67,-584.61 -56.9,-5.92 -554.71,-41.41 -559.69,-44.54l-722.11 0c-22.79,12.67 -3.24,6.26 -38.98,8.77 -238.72,16.78 -366.02,17.77 -624.4,62.44 -116,20.06 -201.87,37.19 -308.26,60.35 -221.48,48.21 -187.71,22.6 -453.53,95.73l-428.36 109.51c-95.43,24.19 -186.33,56.33 -280.54,89.12 -564.52,196.56 -737.69,299.79 -1253.83,556.48 -160.88,80.01 -533.76,307.55 -671.14,424.56 -45.32,38.61 -149.73,132.33 -214.98,142.49l0 18607.15c0,54.38 13.68,261.31 -16.97,265.03z"/>
 </g>
</svg>
