<svg aria-hidden="true" style="position: absolute; width: 0; height: 0; overflow: hidden;" version="1.1" xmlns="http://www.w3.org/2000/svg" xmlns:xlink="http://www.w3.org/1999/xlink">
<defs>
<symbol id="icon-tupaginayablancoynegro" viewBox="0 0 99 32">
<path d="M16.482 12.378v-10.922h-3.96v-1.452h9.542v1.452h-3.981v10.922h-1.6zM28.551 12.378v-1.316c-0.339 0.507-0.742 0.887-1.2 1.143-0.462 0.253-0.982 0.38-1.563 0.38-0.688 0-1.272-0.156-1.761-0.47-0.486-0.311-0.811-0.708-0.975-1.187s-0.246-1.132-0.246-1.962v-5.559h1.477v4.974c0 0.925 0.055 1.541 0.164 1.855 0.11 0.311 0.315 0.562 0.609 0.752 0.297 0.187 0.636 0.282 1.016 0.282 0.704 0 1.282-0.245 1.737-0.734 0.386-0.423 0.578-1.198 0.578-2.324v-4.804h1.477v8.969h-1.313z"></path>
<path d="M5.701 21.962h-2.726v4.159c0 0.595-0.14 1.043-0.421 1.351s-0.636 0.462-1.060 0.462c-0.448 0-0.811-0.15-1.084-0.455s-0.41-0.752-0.41-1.337v-11.323c0-0.653 0.151-1.122 0.452-1.402s0.776-0.421 1.433-0.421h3.817c1.129 0 1.997 0.086 2.606 0.26 0.602 0.168 1.122 0.444 1.559 0.831 0.438 0.39 0.769 0.862 0.995 1.423 0.229 0.561 0.342 1.193 0.342 1.895 0 1.498-0.462 2.63-1.382 3.402-0.923 0.769-2.295 1.156-4.121 1.156zM4.979 15.232h-2.004v4.494h2.004c0.701 0 1.289-0.075 1.761-0.222 0.469-0.147 0.828-0.387 1.077-0.721 0.246-0.332 0.369-0.773 0.369-1.313 0-0.65-0.191-1.176-0.571-1.583-0.427-0.434-1.306-0.653-2.637-0.653zM19.63 26.398c-0.663 0.513-1.303 0.896-1.919 1.153-0.619 0.256-1.313 0.383-2.079 0.383-0.701 0-1.32-0.14-1.85-0.417s-0.941-0.65-1.228-1.125c-0.288-0.475-0.431-0.988-0.431-1.542 0-0.749 0.236-1.385 0.711-1.912 0.475-0.53 1.128-0.882 1.96-1.064 0.171-0.041 0.602-0.13 1.289-0.27s1.279-0.267 1.768-0.386c0.489-0.116 1.022-0.257 1.597-0.424-0.034-0.722-0.178-1.252-0.434-1.587-0.26-0.339-0.79-0.506-1.601-0.506-0.694 0-1.218 0.096-1.566 0.291-0.352 0.192-0.653 0.482-0.903 0.872-0.249 0.386-0.427 0.639-0.53 0.766-0.106 0.123-0.328 0.185-0.667 0.185-0.308 0-0.574-0.099-0.797-0.298-0.222-0.195-0.335-0.448-0.335-0.756 0-0.482 0.171-0.951 0.509-1.405 0.342-0.455 0.872-0.828 1.594-1.122s1.621-0.441 2.698-0.441c1.2 0 2.148 0.144 2.835 0.428s1.173 0.732 1.457 1.347c0.284 0.616 0.428 1.429 0.428 2.445 0 0.643-0.004 1.187-0.007 1.635s-0.007 0.947-0.013 1.495c0 0.513 0.085 1.050 0.256 1.607 0.171 0.554 0.253 0.913 0.253 1.074 0 0.28-0.13 0.537-0.393 0.766-0.266 0.229-0.564 0.345-0.899 0.345-0.28 0-0.557-0.13-0.831-0.393s-0.564-0.643-0.872-1.142zM19.448 22.434c-0.4 0.147-0.982 0.304-1.748 0.465-0.763 0.164-1.293 0.288-1.587 0.363-0.294 0.079-0.574 0.229-0.841 0.452-0.267 0.226-0.4 0.537-0.4 0.94 0 0.414 0.157 0.766 0.472 1.057 0.312 0.291 0.722 0.438 1.231 0.438 0.54 0 1.040-0.12 1.495-0.356 0.458-0.239 0.793-0.544 1.009-0.92 0.246-0.414 0.369-1.098 0.369-2.049v-0.39zM34.694 18.823v7.944c0 0.91-0.096 1.689-0.291 2.343-0.195 0.657-0.503 1.197-0.93 1.625s-0.988 0.745-1.679 0.951c-0.691 0.209-1.553 0.311-2.579 0.311-0.944 0-1.785-0.133-2.527-0.397-0.739-0.263-1.31-0.605-1.713-1.023-0.4-0.417-0.599-0.845-0.599-1.286 0-0.335 0.113-0.605 0.338-0.817 0.229-0.209 0.503-0.315 0.824-0.315 0.4 0 0.753 0.174 1.053 0.53 0.147 0.178 0.301 0.359 0.455 0.544 0.157 0.181 0.332 0.339 0.52 0.469 0.191 0.13 0.421 0.229 0.687 0.291 0.267 0.065 0.574 0.096 0.92 0.096 0.708 0 1.255-0.099 1.645-0.294 0.393-0.198 0.667-0.472 0.821-0.827 0.157-0.352 0.25-0.732 0.277-1.135s0.048-1.050 0.058-1.946c-0.421 0.588-0.906 1.036-1.457 1.341-0.551 0.308-1.207 0.462-1.966 0.462-0.917 0-1.717-0.233-2.401-0.701s-1.21-1.122-1.576-1.966c-0.366-0.841-0.551-1.813-0.551-2.914 0-0.824 0.113-1.566 0.335-2.227 0.226-0.66 0.544-1.221 0.957-1.672 0.414-0.455 0.889-0.797 1.433-1.030 0.54-0.229 1.135-0.345 1.782-0.345 0.773 0 1.447 0.151 2.014 0.448s1.095 0.766 1.58 1.402v-0.373c0-0.475 0.12-0.845 0.352-1.105 0.233-0.263 0.534-0.393 0.903-0.393 0.527 0 0.879 0.175 1.053 0.52s0.26 0.841 0.26 1.491zM26.774 22.291c0 1.108 0.243 1.946 0.725 2.513 0.486 0.568 1.108 0.852 1.878 0.852 0.451 0 0.882-0.123 1.286-0.366s0.732-0.612 0.985-1.101c0.253-0.493 0.38-1.088 0.38-1.789 0-1.115-0.246-1.983-0.735-2.606-0.489-0.619-1.135-0.93-1.936-0.93-0.78 0-1.405 0.297-1.877 0.892-0.469 0.595-0.705 1.44-0.705 2.534zM40.193 18.364v7.907c0 0.547-0.13 0.961-0.39 1.241s-0.588 0.421-0.988 0.421c-0.4 0-0.725-0.144-0.975-0.431s-0.376-0.698-0.376-1.231v-7.824c0-0.544 0.126-0.951 0.376-1.224s0.575-0.411 0.975-0.411c0.4 0 0.728 0.137 0.988 0.411s0.39 0.656 0.39 1.142zM38.842 15.54c-0.38 0-0.705-0.116-0.975-0.349s-0.403-0.564-0.403-0.992c0-0.383 0.137-0.701 0.414-0.951s0.599-0.376 0.965-0.376c0.356 0 0.667 0.113 0.94 0.339 0.274 0.229 0.411 0.558 0.411 0.989 0 0.42-0.134 0.749-0.4 0.985s-0.581 0.356-0.951 0.356zM45.501 18.324v0.331c0.482-0.636 1.009-1.101 1.58-1.399s1.228-0.445 1.97-0.445c0.721 0 1.364 0.158 1.936 0.472 0.568 0.311 0.992 0.756 1.272 1.33 0.181 0.335 0.298 0.694 0.352 1.084 0.051 0.387 0.078 0.879 0.078 1.481v5.092c0 0.547-0.126 0.961-0.376 1.241s-0.578 0.421-0.978 0.421c-0.407 0-0.739-0.144-0.995-0.431-0.253-0.287-0.38-0.698-0.38-1.231v-4.562c0-0.9-0.126-1.59-0.376-2.069-0.249-0.475-0.749-0.715-1.498-0.715-0.486 0-0.93 0.144-1.334 0.434-0.4 0.291-0.694 0.691-0.879 1.2-0.134 0.407-0.202 1.166-0.202 2.284v3.427c0 0.554-0.13 0.968-0.386 1.245s-0.588 0.417-0.992 0.417c-0.393 0-0.718-0.144-0.971-0.431s-0.38-0.698-0.38-1.231v-7.907c0-0.52 0.113-0.91 0.339-1.166 0.229-0.256 0.537-0.387 0.93-0.387 0.239 0 0.458 0.058 0.65 0.171 0.195 0.113 0.349 0.284 0.465 0.51s0.175 0.506 0.175 0.831zM62.33 26.398c-0.663 0.513-1.303 0.896-1.919 1.153-0.619 0.256-1.313 0.383-2.079 0.383-0.701 0-1.32-0.14-1.85-0.417s-0.94-0.65-1.228-1.125c-0.287-0.475-0.431-0.988-0.431-1.542 0-0.749 0.236-1.385 0.711-1.912 0.475-0.53 1.129-0.882 1.96-1.064 0.171-0.041 0.602-0.13 1.289-0.27s1.279-0.267 1.768-0.386c0.489-0.116 1.023-0.257 1.597-0.424-0.034-0.722-0.178-1.252-0.434-1.587-0.26-0.339-0.79-0.506-1.6-0.506-0.695 0-1.218 0.096-1.566 0.291-0.352 0.192-0.653 0.482-0.903 0.872-0.25 0.386-0.428 0.639-0.53 0.766-0.106 0.123-0.328 0.185-0.667 0.185-0.308 0-0.574-0.099-0.797-0.298-0.222-0.195-0.335-0.448-0.335-0.756 0-0.482 0.171-0.951 0.509-1.405 0.342-0.455 0.872-0.828 1.594-1.122s1.621-0.441 2.698-0.441c1.2 0 2.148 0.144 2.835 0.428s1.173 0.732 1.457 1.347c0.284 0.616 0.427 1.429 0.427 2.445 0 0.643-0.003 1.187-0.007 1.635s-0.007 0.947-0.014 1.495c0 0.513 0.085 1.050 0.256 1.607 0.171 0.554 0.253 0.913 0.253 1.074 0 0.28-0.13 0.537-0.393 0.766-0.267 0.229-0.564 0.345-0.899 0.345-0.281 0-0.557-0.13-0.831-0.393s-0.564-0.643-0.872-1.142zM62.149 22.434c-0.4 0.147-0.982 0.304-1.748 0.465-0.763 0.164-1.293 0.288-1.587 0.363-0.294 0.079-0.574 0.229-0.841 0.452-0.267 0.226-0.4 0.537-0.4 0.94 0 0.414 0.157 0.766 0.472 1.057 0.312 0.291 0.722 0.438 1.231 0.438 0.54 0 1.040-0.12 1.495-0.356 0.458-0.239 0.793-0.544 1.009-0.92 0.246-0.414 0.369-1.098 0.369-2.049v-0.39z"></path>
<path d="M70.626 26.814c0.049 0.269 0.19 0.502 0.423 0.698s0.484 0.294 0.753 0.294h1.506c0.269 0 0.484-0.098 0.643-0.294s0.215-0.428 0.166-0.698l-1.837-8.597 5.621-14.806c0.123-0.318 0.092-0.618-0.092-0.9s-0.447-0.423-0.79-0.423h-1.249c-0.49 0-0.821 0.098-0.992 0.294s-0.294 0.404-0.367 0.625l-4.372 11.536-9.258-11.536c-0.196-0.22-0.398-0.429-0.606-0.625s-0.557-0.294-1.047-0.294h-1.837c-0.465 0-0.71 0.153-0.735 0.459s0.073 0.594 0.294 0.863l11.941 14.806 1.837 8.597z"></path>
<path d="M82.599 3.066c0.513 0.31 14.496 13.634 14.65 13.922l-6.326-1.723c-0.263 0.944 3.863 7.536 4.259 9.028-0.873-0.046-2.57 0.8-3.452 0.831l-3.757-7.763c-1.112-2.344-0.963-1.816-5.836 1.728-0.222 0.162-0.645 0.439-0.861 0.614-0.188-0.562 1.161-14.73 1.324-16.637zM78.259 23.531c0.789 0.212 0.9-0.073 1.796-0.759 1.182-0.905 3.935-2.867 4.739-3.648 0.354 0.323 0.308 0.551 0.603 1.044l1.978 4.443c0.207 0.494 0.395 0.59 0.583 1.143s0.194 0.58 0.488 1.091c0.922 1.602-0.29 1.586 4.56 0.13 0.815-0.245 1.026-0.406 1.746-0.948 2.027-1.527 1.995-0.409-0.643-5.391-0.145-0.274-0.228-0.419-0.374-0.693-0.249-0.468-0.231-0.335-0.284-0.849 3.303 0.953 2.628 1.079 4.333-0.286 1.682-1.347 1.54-0.727-3.098-5.081-1.751-1.644-11.737-11.449-12.75-11.825-1.561 3.046-1.383 0.849-1.876 5.075-0.339 2.906-2.15 15.5-1.8 16.556z"></path>
</symbol>
<symbol id="icon-tupaginaya" viewBox="0 0 99 32">
<path fill="#000" style="fill: var(--color1, #000)" d="M16.482 12.378v-10.922h-3.96v-1.452h9.542v1.452h-3.981v10.922h-1.6zM28.551 12.378v-1.316c-0.339 0.507-0.742 0.887-1.2 1.143-0.462 0.253-0.982 0.38-1.563 0.38-0.688 0-1.272-0.156-1.761-0.47-0.486-0.311-0.811-0.708-0.975-1.187s-0.246-1.132-0.246-1.962v-5.559h1.477v4.974c0 0.925 0.055 1.541 0.164 1.855 0.11 0.311 0.315 0.562 0.609 0.752 0.297 0.187 0.636 0.282 1.016 0.282 0.704 0 1.282-0.245 1.737-0.734 0.386-0.423 0.578-1.198 0.578-2.324v-4.804h1.477v8.969h-1.313z"></path>
<path fill="#5f5b61" style="fill: var(--color2, #5f5b61)" d="M5.701 21.962h-2.726v4.159c0 0.595-0.14 1.043-0.421 1.351s-0.636 0.462-1.060 0.462c-0.448 0-0.811-0.15-1.084-0.455s-0.41-0.752-0.41-1.337v-11.323c0-0.653 0.151-1.122 0.452-1.402s0.776-0.421 1.433-0.421h3.817c1.129 0 1.997 0.086 2.606 0.26 0.602 0.168 1.122 0.444 1.559 0.831 0.438 0.39 0.769 0.862 0.995 1.423 0.229 0.561 0.342 1.193 0.342 1.895 0 1.498-0.462 2.63-1.382 3.402-0.923 0.769-2.295 1.156-4.121 1.156zM4.979 15.232h-2.004v4.494h2.004c0.701 0 1.289-0.075 1.761-0.222 0.469-0.147 0.828-0.387 1.077-0.721 0.246-0.332 0.369-0.773 0.369-1.313 0-0.65-0.191-1.176-0.571-1.583-0.427-0.434-1.306-0.653-2.637-0.653zM19.63 26.398c-0.663 0.513-1.303 0.896-1.919 1.153-0.619 0.256-1.313 0.383-2.079 0.383-0.701 0-1.32-0.14-1.85-0.417s-0.941-0.65-1.228-1.125c-0.288-0.475-0.431-0.988-0.431-1.542 0-0.749 0.236-1.385 0.711-1.912 0.475-0.53 1.128-0.882 1.96-1.064 0.171-0.041 0.602-0.13 1.289-0.27s1.279-0.267 1.768-0.386c0.489-0.116 1.022-0.257 1.597-0.424-0.034-0.722-0.178-1.252-0.434-1.587-0.26-0.339-0.79-0.506-1.601-0.506-0.694 0-1.218 0.096-1.566 0.291-0.352 0.192-0.653 0.482-0.903 0.872-0.249 0.386-0.427 0.639-0.53 0.766-0.106 0.123-0.328 0.185-0.667 0.185-0.308 0-0.574-0.099-0.797-0.298-0.222-0.195-0.335-0.448-0.335-0.756 0-0.482 0.171-0.951 0.509-1.405 0.342-0.455 0.872-0.828 1.594-1.122s1.621-0.441 2.698-0.441c1.2 0 2.148 0.144 2.835 0.428s1.173 0.732 1.457 1.347c0.284 0.616 0.428 1.429 0.428 2.445 0 0.643-0.004 1.187-0.007 1.635s-0.007 0.947-0.013 1.495c0 0.513 0.085 1.050 0.256 1.607 0.171 0.554 0.253 0.913 0.253 1.074 0 0.28-0.13 0.537-0.393 0.766-0.266 0.229-0.564 0.345-0.899 0.345-0.28 0-0.557-0.13-0.831-0.393s-0.564-0.643-0.872-1.142zM19.448 22.434c-0.4 0.147-0.982 0.304-1.748 0.465-0.763 0.164-1.293 0.288-1.587 0.363-0.294 0.079-0.574 0.229-0.841 0.452-0.267 0.226-0.4 0.537-0.4 0.94 0 0.414 0.157 0.766 0.472 1.057 0.312 0.291 0.722 0.438 1.231 0.438 0.54 0 1.040-0.12 1.495-0.356 0.458-0.239 0.793-0.544 1.009-0.92 0.246-0.414 0.369-1.098 0.369-2.049v-0.39zM34.694 18.823v7.944c0 0.91-0.096 1.689-0.291 2.343-0.195 0.657-0.503 1.197-0.93 1.625s-0.988 0.745-1.679 0.951c-0.691 0.209-1.553 0.311-2.579 0.311-0.944 0-1.785-0.133-2.527-0.397-0.739-0.263-1.31-0.605-1.713-1.023-0.4-0.417-0.599-0.845-0.599-1.286 0-0.335 0.113-0.605 0.338-0.817 0.229-0.209 0.503-0.315 0.824-0.315 0.4 0 0.753 0.174 1.053 0.53 0.147 0.178 0.301 0.359 0.455 0.544 0.157 0.181 0.332 0.339 0.52 0.469 0.191 0.13 0.421 0.229 0.687 0.291 0.267 0.065 0.574 0.096 0.92 0.096 0.708 0 1.255-0.099 1.645-0.294 0.393-0.198 0.667-0.472 0.821-0.827 0.157-0.352 0.25-0.732 0.277-1.135s0.048-1.050 0.058-1.946c-0.421 0.588-0.906 1.036-1.457 1.341-0.551 0.308-1.207 0.462-1.966 0.462-0.917 0-1.717-0.233-2.401-0.701s-1.21-1.122-1.576-1.966c-0.366-0.841-0.551-1.813-0.551-2.914 0-0.824 0.113-1.566 0.335-2.227 0.226-0.66 0.544-1.221 0.957-1.672 0.414-0.455 0.889-0.797 1.433-1.030 0.54-0.229 1.135-0.345 1.782-0.345 0.773 0 1.447 0.151 2.014 0.448s1.095 0.766 1.58 1.402v-0.373c0-0.475 0.12-0.845 0.352-1.105 0.233-0.263 0.534-0.393 0.903-0.393 0.527 0 0.879 0.175 1.053 0.52s0.26 0.841 0.26 1.491zM26.774 22.291c0 1.108 0.243 1.946 0.725 2.513 0.486 0.568 1.108 0.852 1.878 0.852 0.451 0 0.882-0.123 1.286-0.366s0.732-0.612 0.985-1.101c0.253-0.493 0.38-1.088 0.38-1.789 0-1.115-0.246-1.983-0.735-2.606-0.489-0.619-1.135-0.93-1.936-0.93-0.78 0-1.405 0.297-1.877 0.892-0.469 0.595-0.705 1.44-0.705 2.534zM40.193 18.364v7.907c0 0.547-0.13 0.961-0.39 1.241s-0.588 0.421-0.988 0.421c-0.4 0-0.725-0.144-0.975-0.431s-0.376-0.698-0.376-1.231v-7.824c0-0.544 0.126-0.951 0.376-1.224s0.575-0.411 0.975-0.411c0.4 0 0.728 0.137 0.988 0.411s0.39 0.656 0.39 1.142zM38.842 15.54c-0.38 0-0.705-0.116-0.975-0.349s-0.403-0.564-0.403-0.992c0-0.383 0.137-0.701 0.414-0.951s0.599-0.376 0.965-0.376c0.356 0 0.667 0.113 0.94 0.339 0.274 0.229 0.411 0.558 0.411 0.989 0 0.42-0.134 0.749-0.4 0.985s-0.581 0.356-0.951 0.356zM45.501 18.324v0.331c0.482-0.636 1.009-1.101 1.58-1.399s1.228-0.445 1.97-0.445c0.721 0 1.364 0.158 1.936 0.472 0.568 0.311 0.992 0.756 1.272 1.33 0.181 0.335 0.298 0.694 0.352 1.084 0.051 0.387 0.078 0.879 0.078 1.481v5.092c0 0.547-0.126 0.961-0.376 1.241s-0.578 0.421-0.978 0.421c-0.407 0-0.739-0.144-0.995-0.431-0.253-0.287-0.38-0.698-0.38-1.231v-4.562c0-0.9-0.126-1.59-0.376-2.069-0.249-0.475-0.749-0.715-1.498-0.715-0.486 0-0.93 0.144-1.334 0.434-0.4 0.291-0.694 0.691-0.879 1.2-0.134 0.407-0.202 1.166-0.202 2.284v3.427c0 0.554-0.13 0.968-0.386 1.245s-0.588 0.417-0.992 0.417c-0.393 0-0.718-0.144-0.971-0.431s-0.38-0.698-0.38-1.231v-7.907c0-0.52 0.113-0.91 0.339-1.166 0.229-0.256 0.537-0.387 0.93-0.387 0.239 0 0.458 0.058 0.65 0.171 0.195 0.113 0.349 0.284 0.465 0.51s0.175 0.506 0.175 0.831zM62.33 26.398c-0.663 0.513-1.303 0.896-1.919 1.153-0.619 0.256-1.313 0.383-2.079 0.383-0.701 0-1.32-0.14-1.85-0.417s-0.94-0.65-1.228-1.125c-0.287-0.475-0.431-0.988-0.431-1.542 0-0.749 0.236-1.385 0.711-1.912 0.475-0.53 1.129-0.882 1.96-1.064 0.171-0.041 0.602-0.13 1.289-0.27s1.279-0.267 1.768-0.386c0.489-0.116 1.023-0.257 1.597-0.424-0.034-0.722-0.178-1.252-0.434-1.587-0.26-0.339-0.79-0.506-1.6-0.506-0.695 0-1.218 0.096-1.566 0.291-0.352 0.192-0.653 0.482-0.903 0.872-0.25 0.386-0.428 0.639-0.53 0.766-0.106 0.123-0.328 0.185-0.667 0.185-0.308 0-0.574-0.099-0.797-0.298-0.222-0.195-0.335-0.448-0.335-0.756 0-0.482 0.171-0.951 0.509-1.405 0.342-0.455 0.872-0.828 1.594-1.122s1.621-0.441 2.698-0.441c1.2 0 2.148 0.144 2.835 0.428s1.173 0.732 1.457 1.347c0.284 0.616 0.427 1.429 0.427 2.445 0 0.643-0.003 1.187-0.007 1.635s-0.007 0.947-0.014 1.495c0 0.513 0.085 1.050 0.256 1.607 0.171 0.554 0.253 0.913 0.253 1.074 0 0.28-0.13 0.537-0.393 0.766-0.267 0.229-0.564 0.345-0.899 0.345-0.281 0-0.557-0.13-0.831-0.393s-0.564-0.643-0.872-1.142zM62.149 22.434c-0.4 0.147-0.982 0.304-1.748 0.465-0.763 0.164-1.293 0.288-1.587 0.363-0.294 0.079-0.574 0.229-0.841 0.452-0.267 0.226-0.4 0.537-0.4 0.94 0 0.414 0.157 0.766 0.472 1.057 0.312 0.291 0.722 0.438 1.231 0.438 0.54 0 1.040-0.12 1.495-0.356 0.458-0.239 0.793-0.544 1.009-0.92 0.246-0.414 0.369-1.098 0.369-2.049v-0.39z"></path>
<path fill="#373435" style="fill: var(--color3, #373435)" d="M70.626 26.814c0.049 0.269 0.19 0.502 0.423 0.698s0.484 0.294 0.753 0.294h1.506c0.269 0 0.484-0.098 0.643-0.294s0.215-0.428 0.166-0.698l-1.837-8.597 5.621-14.806c0.123-0.318 0.092-0.618-0.092-0.9s-0.447-0.423-0.79-0.423h-1.249c-0.49 0-0.821 0.098-0.992 0.294s-0.294 0.404-0.367 0.625l-4.372 11.536-9.258-11.536c-0.196-0.22-0.398-0.429-0.606-0.625s-0.557-0.294-1.047-0.294h-1.837c-0.465 0-0.71 0.153-0.735 0.459s0.073 0.594 0.294 0.863l11.941 14.806 1.837 8.597z"></path>
<path fill="#000" style="fill: var(--color1, #000)" d="M82.599 3.066c0.513 0.31 14.496 13.634 14.65 13.922l-6.326-1.723c-0.263 0.944 3.863 7.536 4.259 9.028-0.873-0.046-2.57 0.8-3.452 0.831l-3.757-7.763c-1.112-2.344-0.963-1.816-5.836 1.728-0.222 0.162-0.645 0.439-0.861 0.614-0.188-0.562 1.161-14.73 1.324-16.637zM78.259 23.531c0.789 0.212 0.9-0.073 1.796-0.759 1.182-0.905 3.935-2.867 4.739-3.648 0.354 0.323 0.308 0.551 0.603 1.044l1.978 4.443c0.207 0.494 0.395 0.59 0.583 1.143s0.194 0.58 0.488 1.091c0.922 1.602-0.29 1.586 4.56 0.13 0.815-0.245 1.026-0.406 1.746-0.948 2.027-1.527 1.995-0.409-0.643-5.391-0.145-0.274-0.228-0.419-0.374-0.693-0.249-0.468-0.231-0.335-0.284-0.849 3.303 0.953 2.628 1.079 4.333-0.286 1.682-1.347 1.54-0.727-3.098-5.081-1.751-1.644-11.737-11.449-12.75-11.825-1.561 3.046-1.383 0.849-1.876 5.075-0.339 2.906-2.15 15.5-1.8 16.556z"></path>
<path fill="#0095ff" style="fill: var(--color4, #0095ff)" d="M97.25 16.988c-0.154-0.287-14.137-13.612-14.65-13.922-0.163 1.906-1.512 16.075-1.324 16.637 0.216-0.175 0.639-0.452 0.861-0.614 4.873-3.543 4.724-4.071 5.836-1.728l3.757 7.763c0.882-0.031 2.579-0.877 3.452-0.831-0.395-1.492-4.522-8.084-4.259-9.028l6.326 1.723z"></path>
</symbol>
<symbol id="icon-phone" viewBox="0 0 32 32">
<path d="M22 20c-2 2-2 4-4 4s-4-2-6-4-4-4-4-6 2-2 4-4-4-8-6-8-6 6-6 6c0 4 4.109 12.109 8 16s12 8 16 8c0 0 6-4 6-6s-6-8-8-6z"></path>
</symbol>
<symbol id="icon-facebook" viewBox="0 0 32 32">
<path d="M19 6h5v-6h-5c-3.86 0-7 3.14-7 7v3h-4v6h4v16h6v-16h5l1-6h-6v-3c0-0.542 0.458-1 1-1z"></path>
</symbol>
<symbol id="icon-instagram" viewBox="0 0 32 32">
<path d="M16 2.881c4.275 0 4.781 0.019 6.462 0.094 1.563 0.069 2.406 0.331 2.969 0.55 0.744 0.288 1.281 0.638 1.837 1.194 0.563 0.563 0.906 1.094 1.2 1.838 0.219 0.563 0.481 1.412 0.55 2.969 0.075 1.688 0.094 2.194 0.094 6.463s-0.019 4.781-0.094 6.463c-0.069 1.563-0.331 2.406-0.55 2.969-0.288 0.744-0.637 1.281-1.194 1.837-0.563 0.563-1.094 0.906-1.837 1.2-0.563 0.219-1.413 0.481-2.969 0.55-1.688 0.075-2.194 0.094-6.463 0.094s-4.781-0.019-6.463-0.094c-1.563-0.069-2.406-0.331-2.969-0.55-0.744-0.288-1.281-0.637-1.838-1.194-0.563-0.563-0.906-1.094-1.2-1.837-0.219-0.563-0.481-1.413-0.55-2.969-0.075-1.688-0.094-2.194-0.094-6.463s0.019-4.781 0.094-6.463c0.069-1.563 0.331-2.406 0.55-2.969 0.288-0.744 0.638-1.281 1.194-1.838 0.563-0.563 1.094-0.906 1.838-1.2 0.563-0.219 1.412-0.481 2.969-0.55 1.681-0.075 2.188-0.094 6.463-0.094zM16 0c-4.344 0-4.887 0.019-6.594 0.094-1.7 0.075-2.869 0.35-3.881 0.744-1.056 0.412-1.95 0.956-2.837 1.85-0.894 0.888-1.438 1.781-1.85 2.831-0.394 1.019-0.669 2.181-0.744 3.881-0.075 1.713-0.094 2.256-0.094 6.6s0.019 4.887 0.094 6.594c0.075 1.7 0.35 2.869 0.744 3.881 0.413 1.056 0.956 1.95 1.85 2.837 0.887 0.887 1.781 1.438 2.831 1.844 1.019 0.394 2.181 0.669 3.881 0.744 1.706 0.075 2.25 0.094 6.594 0.094s4.888-0.019 6.594-0.094c1.7-0.075 2.869-0.35 3.881-0.744 1.050-0.406 1.944-0.956 2.831-1.844s1.438-1.781 1.844-2.831c0.394-1.019 0.669-2.181 0.744-3.881 0.075-1.706 0.094-2.25 0.094-6.594s-0.019-4.887-0.094-6.594c-0.075-1.7-0.35-2.869-0.744-3.881-0.394-1.063-0.938-1.956-1.831-2.844-0.887-0.887-1.781-1.438-2.831-1.844-1.019-0.394-2.181-0.669-3.881-0.744-1.712-0.081-2.256-0.1-6.6-0.1v0z"></path>
<path d="M16 7.781c-4.537 0-8.219 3.681-8.219 8.219s3.681 8.219 8.219 8.219 8.219-3.681 8.219-8.219c0-4.537-3.681-8.219-8.219-8.219zM16 21.331c-2.944 0-5.331-2.387-5.331-5.331s2.387-5.331 5.331-5.331c2.944 0 5.331 2.387 5.331 5.331s-2.387 5.331-5.331 5.331z"></path>
<path d="M26.462 7.456c0 1.060-0.859 1.919-1.919 1.919s-1.919-0.859-1.919-1.919c0-1.060 0.859-1.919 1.919-1.919s1.919 0.859 1.919 1.919z"></path>
</symbol>
<symbol id="icon-whatsapp" viewBox="0 0 32 32">
<path d="M27.281 4.65c-2.994-3-6.975-4.65-11.219-4.65-8.738 0-15.85 7.112-15.85 15.856 0 2.794 0.731 5.525 2.119 7.925l-2.25 8.219 8.406-2.206c2.319 1.262 4.925 1.931 7.575 1.931h0.006c0 0 0 0 0 0 8.738 0 15.856-7.113 15.856-15.856 0-4.238-1.65-8.219-4.644-11.219zM16.069 29.050v0c-2.369 0-4.688-0.637-6.713-1.837l-0.481-0.288-4.987 1.306 1.331-4.863-0.313-0.5c-1.325-2.094-2.019-4.519-2.019-7.012 0-7.269 5.912-13.181 13.188-13.181 3.519 0 6.831 1.375 9.319 3.862 2.488 2.494 3.856 5.8 3.856 9.325-0.006 7.275-5.919 13.188-13.181 13.188zM23.294 19.175c-0.394-0.2-2.344-1.156-2.706-1.288s-0.625-0.2-0.894 0.2c-0.262 0.394-1.025 1.288-1.256 1.556-0.231 0.262-0.462 0.3-0.856 0.1s-1.675-0.619-3.188-1.969c-1.175-1.050-1.975-2.35-2.206-2.744s-0.025-0.613 0.175-0.806c0.181-0.175 0.394-0.463 0.594-0.694s0.262-0.394 0.394-0.662c0.131-0.262 0.069-0.494-0.031-0.694s-0.894-2.15-1.219-2.944c-0.319-0.775-0.65-0.669-0.894-0.681-0.231-0.012-0.494-0.012-0.756-0.012s-0.694 0.1-1.056 0.494c-0.363 0.394-1.387 1.356-1.387 3.306s1.419 3.831 1.619 4.1c0.2 0.262 2.794 4.269 6.769 5.981 0.944 0.406 1.681 0.65 2.256 0.837 0.95 0.3 1.813 0.256 2.494 0.156 0.762-0.113 2.344-0.956 2.675-1.881s0.331-1.719 0.231-1.881c-0.094-0.175-0.356-0.275-0.756-0.475z"></path>
</symbol>
</defs>
</svg>
